<svg xmlns="http://www.w3.org/2000/svg" viewBox="0 0 151.89 107.52"><defs><style>.cls-1{isolation:isolate;}.cls-2{fill:#fff;}</style></defs><g id="Layer_2" data-name="Layer 2"><g id="Layer_2-2" data-name="Layer 2"><path class="cls-2" d="M94.63,47.34a20.21,20.21,0,0,1,1.71-4.46,32.87,32.87,0,0,1,2.34-4.32,24.3,24.3,0,0,1,9.88-9,32.61,32.61,0,0,1,9.77-2.74c.68-.1,1.35-.1,1.52-.93,0-.13.17-.33.26-.33,1.33,0,1.26-1.09,1.53-1.87.19-.58.52-.82,1.14-.61s.4.75.25,1.1c-.38.79-.75,1.52.23,2.17a.29.29,0,0,1,.06.27c-.63,1.48,1,2,1.94,2.76a21,21,0,0,1,3.43,3.82,26.52,26.52,0,0,1,4.42,9,25,25,0,0,1,.77,8,24.49,24.49,0,0,1-.63,4.15c-.16.68-.35,1.36-.58,2s-.47,1.43-1,.5a14.74,14.74,0,0,0-1.56-2.68,10.94,10.94,0,0,0-5.64-3.51,11.58,11.58,0,0,0-10,2.08.92.92,0,0,1-.2-1.08c1-1.93,1.13-4.1,1.9-6.08a52,52,0,0,0,1.61-5.25c.67-2.47,1.55-4.89,2.2-7.37.42-1.63,1.1-3.22,1.48-4.87,0-.23.19-.45.11-.71a.7.7,0,0,0-.49-.52c-.33-.09-.43.17-.54.38A16.51,16.51,0,0,0,119.32,31c-.57,2-1.27,3.95-1.81,5.95-.79,3-1.87,5.91-2.7,8.9-.51,1.82-1.09,3.64-1.65,5.45-.11.34-.23.73-.67.81-.09-1.45-1.58-3.13-2.69-4.13A11.45,11.45,0,0,0,105,45.4a12.58,12.58,0,0,0-5.36-.15,15.6,15.6,0,0,0-5,2.11Z"/><path class="cls-2" d="M110.83,81.46a1,1,0,0,1-.41.12c-.7,0-1.22-.51-1.85-.69a9.64,9.64,0,0,0-2.63-.1H86.17c-.67,0-1.33,0-2,0s-1.1.36-1.09,1.09c0,1.27,0,2.53,0,3.8,0,3.12,0,6.24,0,9.36,0,.62,0,1.22-.74,1.42-.56.16-1.16-.51-1.18-1.4,0-3.85,0-7.7,0-11.55,0-.93,0-1.85,0-2.78s.15-1.08,1.18-1.09c1.8,0,3.59,0,5.38,0,.31,0,.61,0,.92,0,1-.08,1.09-.17,1.1-1.19,0-2.24.06-4.49,0-6.73a2.09,2.09,0,0,1,1.13-2c4.22-2.83,8.37-5.76,12.53-8.66,2.45-1.71,2.47-1.73,4.87-.09,3.1,2.14,6.14,4.35,9.26,6.46,1.14.76,2.26,1.53,3.4,2.28.71.47,1.16.95,1,1.77-.15,1,.53,1.53,1.24,2,2.06,1.43,4.15,2.83,6.22,4.24,1.37.92,2.73,1.83,4.1,2.73a.63.63,0,0,1,.34.61c-.18,1.16-2-.23-2.3-.46l-3.13-2.14-4.09-2.78c-.68-.46-1.35-.94-2-1.39s-1-.12-1.67.26L119,75.72l-4.71,3.15c-.69.47-1.39.93-2.06,1.43a5.29,5.29,0,0,0-.9.65,2,2,0,0,1-.47.48Zm-4.68-6.56h5.38a1.68,1.68,0,0,0,1.12-.27,1.19,1.19,0,0,0,.27-.93V71.06a2.28,2.28,0,0,0-.49-1.7,3.13,3.13,0,0,0-2.2-.53l-5.87.08-2.93,0a1.84,1.84,0,0,0-1.73.73A2.89,2.89,0,0,0,99.5,71v2.85a1,1,0,0,0,.29.86,1.42,1.42,0,0,0,.82.17h5.52Z"/><path class="cls-2" d="M118.14,77.68l1.56-1.14a20.31,20.31,0,0,1,1.71-1.21c.57-.32,1,.14,1.4.49,2.17,1.75,4.34,3.47,6.6,5.1a2.54,2.54,0,0,1,1,2.34c-.06,1.35,0,2.71,0,4.06V95.5c0,.36,0,.93-.38,1.15a3.77,3.77,0,0,1-1.58.1,24.12,24.12,0,0,1-2.82-.17c-.37,0-.73,0-1-.35a1.82,1.82,0,0,1-.19-1c0-1.62,0-3.25.07-4.87,0-.73,0-1.47,0-2.19a1.41,1.41,0,0,0-.73-1.46,2.73,2.73,0,0,0-1.24-.16l-1.9,0a2.38,2.38,0,0,0-1.26.27c-.51.34-.35.86-.34,1.36,0,.77,0,1.55,0,2.33V96c0,.39-.13.73-.57.76s-1.25-.06-1.86-.07l-3.59,0c-.8,0-1.57.21-1.56-.83,0-1.47,0-2.94,0-4.41V84.51a5.16,5.16,0,0,1,.1-2c.25-.54,1.25-1,1.73-1.38L117,78.5l1.13-.82Z"/><path class="cls-2" d="M93.34,46.78c-.49-.17-1.06-1.28-1.31-1.66A13.37,13.37,0,0,0,89.39,42,11.64,11.64,0,0,0,78.1,40.23a4.77,4.77,0,0,1-1,.34c-2.07.32.19-1.46.52-1.83A37.13,37.13,0,0,1,85.66,32a39.6,39.6,0,0,1,6.71-3.34,43.33,43.33,0,0,1,12.07-2.69,46.56,46.56,0,0,1,6.25-.07c.44,0,2.67,0,2.66.43s-2,.88-2.43,1l-.8.31a31.34,31.34,0,0,0-3.45,1.81,30,30,0,0,0-6,4.7,27.05,27.05,0,0,0-5.28,7.69,30.59,30.59,0,0,0-1.48,4.32c-.16.57-.39.71-.63.63Z"/><path class="cls-2" d="M127.82,30c0-.12.24,0,.57.11a44.24,44.24,0,0,1,5.28,3,36.5,36.5,0,0,1,3.41,2.32,39.73,39.73,0,0,1,9.27,9.88,36.83,36.83,0,0,1,4.08,8.81,42.62,42.62,0,0,1,1.43,6.71,1.93,1.93,0,0,1-.13,1.06,19.26,19.26,0,0,0-3.34-3.77,11.64,11.64,0,0,0-13.73-.32c-.36.26-.74.84-1.14.47-.24-.23-.15-.74-.09-1a19.09,19.09,0,0,1,.75-2.08,26.45,26.45,0,0,0,.79-4A25.3,25.3,0,0,0,134.6,43a26.84,26.84,0,0,0-4.16-9.58c-.51-.74-1.05-1.46-1.64-2.16a6.56,6.56,0,0,1-.86-1c-.08-.16-.12-.25-.1-.31Zm16.54,17.4a2.77,2.77,0,0,0-.81-1.93,9.56,9.56,0,0,0-1.89-1.49c-.44-.3-1.64-1.45-2.26-1s-.24,1.93-.27,2.46a8,8,0,0,0,.1,1.89,2.65,2.65,0,0,0,3.53,2.08,2.28,2.28,0,0,0,1.58-1.84v-.14Z"/><path class="cls-2" d="M126.64,69.14c.12.37-.31.75-.69,1a5.87,5.87,0,0,1-1.11.79c-.48.23-.75,0-1.13-.28L121,68.82l-5.47-3.74a27.37,27.37,0,0,0-2.67-1.83l-2.74-1.87-2.73-1.87a4.87,4.87,0,0,0-1.25-.81,1.51,1.51,0,0,0-1.1.36c-1,.63-1.94,1.29-2.89,1.95-3.58,2.47-7.15,5-10.78,7.35A36.47,36.47,0,0,0,88,70.78c-.58.49-.91.3-1.47-.1a14,14,0,0,1-1.2-1c-.48-.45-.18-.75.29-1.06l1.79-1.25L91,64.92,98.19,60l4.61-3.11,1.63-1.1c.41-.27,1-.8,1.54-.78s1.12.56,1.51.81c.55.35,1.09.72,1.63,1.09L120,64.4l4.25,2.93,2.14,1.46a.72.72,0,0,1,.27.33Z"/><path class="cls-2" d="M97.1,90.8V86.71c0-1.22.25-1.45,1.51-1.46,1.64,0,3.27,0,4.91,0,1.22,0,1.56.32,1.57,1.48,0,2.78,0,5.55,0,8.33,0,1-.15,1.16-1.12,1.18-1.94,0-3.89,0-5.83,0-.89,0-1-.21-1.06-1.06V90.81h0Z"/><path class="cls-2" d="M95.69,90.9c0,1.46,0,2.93,0,4.39,0,.67-.22,1-1,1-1.89,0-3.79,0-5.68,0-.77,0-1.09-.26-1.08-1,0-2.88,0-5.75,0-8.63,0-1.08.25-1.3,1.35-1.31,1.73,0,3.48,0,5.22,0,1,0,1.13.14,1.14,1.12,0,1.51,0,3,0,4.53h0Z"/><path class="cls-2" d="M100.48,8.74a12.46,12.46,0,0,0,1,2.22c1,2.13,3.32,5,2,7.35A3.8,3.8,0,0,1,99.86,20a3.51,3.51,0,0,1-3-2.46c-.31-1.31.34-2.63,1-3.85l1.31-2.5a12,12,0,0,1,1.34-2.46ZM103,15.9a2.49,2.49,0,0,0-.3,1.48.49.49,0,0,0,.24.33.27.27,0,0,0,.36-.18A1.33,1.33,0,0,0,103,15.9Z"/><path class="cls-2" d="M132.49,11.3c.7,1.55,1.8,2.89,2.23,4.55a2.6,2.6,0,0,1-.07,1.56,2.12,2.12,0,0,1-2.05,1.64,2.87,2.87,0,0,1-2.35-1.32,2.47,2.47,0,0,1,.21-2.75c.71-1.17,1.23-2.43,2-3.69Z"/><path class="cls-2" d="M112,0a13.42,13.42,0,0,0,1,1.72A11,11,0,0,1,113.78,4a3.71,3.71,0,0,1,.1,1.78,2,2,0,0,1-1.12,1.42,2.29,2.29,0,0,1-2.47-.58,2.66,2.66,0,0,1-.58-2.31,6.3,6.3,0,0,1,1-2.26c.42-.66.78-1.45,1.25-2Z"/><path class="cls-2" d="M109.34,69.79c3.23-.07,2.7.19,2.72,2.64,0,.24,0,.49,0,.73-.06.91-.24,1.09-1.21,1.12s-2,0-3.06,0-1.16-.15-1.19-1.08c0-.73,0-1.46,0-2.18,0-1,.16-1.14,1.25-1.22h1.54Z"/><path class="cls-2" d="M103.2,69.73c3.22-.07,2.7.19,2.71,2.64,0,.24,0,.49,0,.73-.06.91-.24,1.09-1.21,1.12s-2,0-3.06,0-1.16-.15-1.19-1.08c0-.73,0-1.46,0-2.18,0-1,.16-1.14,1.25-1.22h1.55Z"/><g class="cls-1"><path class="cls-2" d="M11,92.75c.29.09.59.2.89.32s.61.24.94.35a9.92,9.92,0,0,0,1,.28,5.1,5.1,0,0,0,1.13.11,6.92,6.92,0,0,0,1.42-.15,6.41,6.41,0,0,0,1.39-.44A7.21,7.21,0,0,0,19,92.51a6.64,6.64,0,0,0,1.15-1c.38-.39.7-.74,1-1.06s.46-.6.62-.85a3.72,3.72,0,0,0,.34-.64,1.59,1.59,0,0,0,.1-.47A.66.66,0,0,0,22,88a1.63,1.63,0,0,0-.58-.35,3.79,3.79,0,0,0-.82-.2,7.5,7.5,0,0,0-1-.06h-.69l-.8,0-.79,0h-.67a4.43,4.43,0,0,1-.87-.09,3.67,3.67,0,0,1-.89-.28,2.79,2.79,0,0,1-.8-.53,2.73,2.73,0,0,1-.62-.82c-.05-.11-.09-.24-.14-.38a1.78,1.78,0,0,1-.06-.47,2.82,2.82,0,0,1,0-.52c0-.17.07-.33.11-.48a4.34,4.34,0,0,1,.6-1.17,7.39,7.39,0,0,1,1-1.15,13.67,13.67,0,0,1,1.27-1.09c.45-.35.92-.68,1.4-1s.95-.59,1.42-.84.89-.46,1.29-.64a8.32,8.32,0,0,1,1.72-.53,9.3,9.3,0,0,1,1.73-.17,3.85,3.85,0,0,1,1,.12,3,3,0,0,1,.81.35,1.66,1.66,0,0,1,.55.57,1.41,1.41,0,0,1,.21.77,1.11,1.11,0,0,1-.07.43.76.76,0,0,1-.16.28A.82.82,0,0,1,26,80a.77.77,0,0,1-.25,0,2.62,2.62,0,0,1-.64-.07c-.19,0-.37-.1-.55-.15L24,79.69a2.14,2.14,0,0,0-.58-.08,5.72,5.72,0,0,0-1.92.34,11.65,11.65,0,0,0-1.91.86A14.81,14.81,0,0,0,17.82,82c-.54.43-1,.84-1.47,1.25a2.15,2.15,0,0,0-.5.64,1.35,1.35,0,0,0-.16.61.76.76,0,0,0,.4.67,2,2,0,0,0,1,.24h.78l.89,0,.88,0,.76,0a5.52,5.52,0,0,1,1.52.21,4.06,4.06,0,0,1,1.28.59,2.88,2.88,0,0,1,.9,1,2.52,2.52,0,0,1,.34,1.32,3,3,0,0,1-.15.93,4.93,4.93,0,0,1-.42,1,8.84,8.84,0,0,1-.61.94c-.23.31-.48.62-.73.91A12.3,12.3,0,0,1,21,93.63a11.61,11.61,0,0,1-1.81,1.24,10,10,0,0,1-2,.84A8,8,0,0,1,15,96a6.83,6.83,0,0,1-1-.08,7.06,7.06,0,0,1-1-.24,4.89,4.89,0,0,1-.94-.39,3.61,3.61,0,0,1-.77-.53,2.52,2.52,0,0,1-.53-.66,1.63,1.63,0,0,1-.2-.79,1,1,0,0,1,.07-.39C10.65,92.81,10.76,92.75,11,92.75Z"/><path class="cls-2" d="M35.64,96.05a1.48,1.48,0,0,1-1.09-.31,1.2,1.2,0,0,1-.29-.85,3.59,3.59,0,0,1,.06-.62,6.91,6.91,0,0,1,.17-.69c.12-.4.25-.81.4-1.21l.45-1.21c.15-.41.29-.82.43-1.23s.27-.82.38-1.24a.58.58,0,0,0,0-.15.35.35,0,0,0-.09-.25.37.37,0,0,0-.27-.09,1.93,1.93,0,0,0-.6.1,3.26,3.26,0,0,0-.55.23,17.6,17.6,0,0,0-1.5,1A12.15,12.15,0,0,0,32,90.61a14.55,14.55,0,0,0-1,1.18c-.32.41-.65.87-1,1.37a10.85,10.85,0,0,0-.67,1.27,6.78,6.78,0,0,1-.4.84,1.29,1.29,0,0,1-.41.47,1.42,1.42,0,0,1-.69.14.89.89,0,0,1-.72-.26,1.09,1.09,0,0,1-.21-.69,2.72,2.72,0,0,1,.11-.75L31.18,79a1.82,1.82,0,0,1,.13-.3,1.28,1.28,0,0,1,.24-.29,1.16,1.16,0,0,1,.37-.23,1.2,1.2,0,0,1,.47-.1l.44,0a2.33,2.33,0,0,1,.41.07.71.71,0,0,1,.31.17.38.38,0,0,1,.12.3s0,.09,0,.19,0,.2-.08.32q-.69,2.49-1.48,5.19L30.51,89.8a15.06,15.06,0,0,1,1.62-1.58A11.73,11.73,0,0,1,33.86,87a9.28,9.28,0,0,1,1.83-.81,6.92,6.92,0,0,1,2-.29,1.3,1.3,0,0,1,1,.37,1.32,1.32,0,0,1,.36,1,1.81,1.81,0,0,1-.07.52c-.11.35-.22.7-.35,1l-.39,1c-.14.35-.28.7-.41,1a10.87,10.87,0,0,0-.36,1.1,8.34,8.34,0,0,0-.28,1.37c-.05.44-.09.78-.1,1A3.55,3.55,0,0,1,37,95a1.93,1.93,0,0,1-.26.54,1.42,1.42,0,0,1-.43.38A1.38,1.38,0,0,1,35.64,96.05Z"/><path class="cls-2" d="M41,91a1.24,1.24,0,0,1,.3-.84,1.4,1.4,0,0,1,.78-.46,6.19,6.19,0,0,1,.43-.68,11.86,11.86,0,0,1,1.72-2,8.17,8.17,0,0,1,1.22-.93,7.92,7.92,0,0,1,1.44-.68,5.26,5.26,0,0,1,1.64-.26,4.46,4.46,0,0,1,1.29.16,2.5,2.5,0,0,1,.91.45,1.78,1.78,0,0,1,.54.68,2.19,2.19,0,0,1,.17.85,2.35,2.35,0,0,1-.11.75,2.6,2.6,0,0,1-.66,1.13,5.24,5.24,0,0,1-1.15.84,7.4,7.4,0,0,1-1.43.6,14.54,14.54,0,0,1-1.54.4c-.52.11-1,.19-1.49.25s-.89.1-1.24.13a2.3,2.3,0,0,0-.19.53,2.2,2.2,0,0,0-.09.61,1.15,1.15,0,0,0,.59,1,3,3,0,0,0,1.62.37,5.4,5.4,0,0,0,1.15-.12,6.62,6.62,0,0,0,1-.31,10,10,0,0,0,.93-.41c.28-.15.55-.3.79-.45s.6-.33.87-.46a1.76,1.76,0,0,1,.74-.19c.21,0,.34,0,.4.14a.59.59,0,0,1,.09.31v.18c0,.05,0,.1,0,.14a1.74,1.74,0,0,1-.26.6,1.79,1.79,0,0,1-.48.51,9.14,9.14,0,0,1-2.73,1.35,11,11,0,0,1-3,.4,6.75,6.75,0,0,1-.72,0,6.9,6.9,0,0,1-.86-.13,4.81,4.81,0,0,1-.88-.3,2.75,2.75,0,0,1-.77-.52,2.38,2.38,0,0,1-.55-.79,2.8,2.8,0,0,1-.21-1.14,5,5,0,0,1,.16-1.2.62.62,0,0,1-.31-.16A.48.48,0,0,1,41,91Zm8-3.18a.26.26,0,0,0,0-.11v-.1a.52.52,0,0,0-.26-.47,1.17,1.17,0,0,0-.61-.15,2.57,2.57,0,0,0-1.1.26,5.23,5.23,0,0,0-1,.66,6.2,6.2,0,0,0-.85.85,6.76,6.76,0,0,0-.58.82,13.12,13.12,0,0,0,1.69-.22,6.8,6.8,0,0,0,1.33-.39,3.43,3.43,0,0,0,.92-.53A1.28,1.28,0,0,0,49,87.79Z"/><path class="cls-2" d="M53.94,91a1.28,1.28,0,0,1,.29-.84,1.47,1.47,0,0,1,.78-.46c.1-.17.24-.4.44-.68a11.35,11.35,0,0,1,.72-.94,11.73,11.73,0,0,1,1-1,8.26,8.26,0,0,1,1.23-.93,7.92,7.92,0,0,1,1.44-.68,5.22,5.22,0,0,1,1.64-.26,4.5,4.5,0,0,1,1.29.16,2.5,2.5,0,0,1,.91.45,1.75,1.75,0,0,1,.53.68,2,2,0,0,1,.18.85,2.67,2.67,0,0,1-.11.75,2.53,2.53,0,0,1-.67,1.13,5,5,0,0,1-1.14.84,7.67,7.67,0,0,1-1.43.6,14.54,14.54,0,0,1-1.54.4c-.52.11-1,.19-1.49.25l-1.24.13a2.83,2.83,0,0,0-.2.53,2.62,2.62,0,0,0-.08.61,1.15,1.15,0,0,0,.59,1,3,3,0,0,0,1.62.37,5.4,5.4,0,0,0,1.15-.12,7,7,0,0,0,1-.31,9.79,9.79,0,0,0,.92-.41c.29-.15.56-.3.79-.45s.6-.33.88-.46A1.76,1.76,0,0,1,64.2,92c.22,0,.35,0,.41.14a.59.59,0,0,1,.09.31,1.09,1.09,0,0,1,0,.18c0,.05,0,.1,0,.14a2,2,0,0,1-.74,1.11,9.14,9.14,0,0,1-2.73,1.35,11.06,11.06,0,0,1-3,.4,8.42,8.42,0,0,1-1.58-.17,4.81,4.81,0,0,1-.88-.3,3,3,0,0,1-.78-.52,2.71,2.71,0,0,1-.55-.79,2.8,2.8,0,0,1-.21-1.14,5,5,0,0,1,.17-1.2.62.62,0,0,1-.31-.16A.48.48,0,0,1,53.94,91Zm8-3.18a.26.26,0,0,0,0-.11v-.1a.52.52,0,0,0-.26-.47,1.17,1.17,0,0,0-.61-.15,2.61,2.61,0,0,0-1.11.26,5.55,5.55,0,0,0-1,.66,6.82,6.82,0,0,0-.85.85,7.84,7.84,0,0,0-.57.82,13.61,13.61,0,0,0,1.69-.22,6.8,6.8,0,0,0,1.33-.39,3.6,3.6,0,0,0,.92-.53A1.35,1.35,0,0,0,61.93,87.79Z"/><path class="cls-2" d="M70.93,79.66a4.23,4.23,0,0,1,.2-.85,2,2,0,0,1,.38-.65.8.8,0,0,1,.61-.26,1.6,1.6,0,0,1,.45.07,2.43,2.43,0,0,1,.47.19,1.41,1.41,0,0,1,.38.29.57.57,0,0,1,.15.38.59.59,0,0,1,0,.21l-.06.24-3.19,11.5c-.13.46-.23.9-.32,1.32s-.15.76-.19,1v.28a6.9,6.9,0,0,1,0,.75,3.52,3.52,0,0,1-.19.76,1.9,1.9,0,0,1-.39.59.94.94,0,0,1-.65.23,1.26,1.26,0,0,1-.6-.13,1.28,1.28,0,0,1-.42-.34,1.36,1.36,0,0,1-.24-.44,1.52,1.52,0,0,1-.08-.44,2.77,2.77,0,0,1,0-.46c0-.18.06-.36.1-.56s.07-.39.12-.59.08-.36.12-.51l3.3-11.75C70.85,80.25,70.89,80,70.93,79.66Z"/></g><g class="cls-1"><path class="cls-2" d="M3.48,99l-1.14,7.79a.6.6,0,0,1-.66.57.59.59,0,0,1-.66-.57l-1-9a.38.38,0,0,1,0-.1c0-.33.19-.49.57-.49a.46.46,0,0,1,.53.47l.65,7.58,1.08-7.5a.58.58,0,0,1,.64-.55.6.6,0,0,1,.66.55l1.08,7.5.64-7.58a.48.48,0,0,1,.55-.47c.37,0,.55.16.55.49v.1l-1,9a.57.57,0,0,1-.64.57.6.6,0,0,1-.67-.57Z"/><path class="cls-2" d="M10.07,104.11l-.82,2.83a.56.56,0,0,1-.59.44.67.67,0,0,1-.24,0,.49.49,0,0,1-.39-.51.64.64,0,0,1,0-.2l2.59-8.71a.87.87,0,0,1,1.7,0l2.6,8.71a1,1,0,0,1,0,.2.48.48,0,0,1-.37.5.63.63,0,0,1-.26,0,.55.55,0,0,1-.58-.44l-.82-2.83Zm1.43-5.7-1.19,4.68h2.38Z"/><path class="cls-2" d="M18.93,98.38H16.68a.46.46,0,0,1-.35-.13.54.54,0,0,1-.16-.4.48.48,0,0,1,.25-.45.55.55,0,0,1,.26-.06h5.71a.52.52,0,0,1,.33.11.49.49,0,0,1,.18.4.5.5,0,0,1-.25.47.55.55,0,0,1-.26.06H20.14v8.52a.44.44,0,0,1-.17.35.64.64,0,0,1-.43.15.63.63,0,0,1-.52-.23.44.44,0,0,1-.09-.27Z"/><path class="cls-2" d="M25.92,102.59v3.34c0,.21.11.32.34.32h3.87a.47.47,0,0,1,.29.08.54.54,0,0,1,0,.89.53.53,0,0,1-.26.07H26c-.9,0-1.34-.42-1.34-1.25V98.57c0-.82.44-1.23,1.34-1.23h3.81a.55.55,0,0,1,.29.08.51.51,0,0,1,.22.44.49.49,0,0,1-.25.46.53.53,0,0,1-.26.06H26.26c-.23,0-.34.1-.34.31v2.91h3.41a.49.49,0,0,1,.34.12.5.5,0,0,1,.15.38.46.46,0,0,1-.23.43.58.58,0,0,1-.26.06Z"/><path class="cls-2" d="M33.85,102.6v4.28a.46.46,0,0,1-.17.36.65.65,0,0,1-.43.13c-.39,0-.59-.16-.59-.49V98.56c0-.81.43-1.22,1.28-1.22h1.53a4,4,0,0,1,2,.46,2,2,0,0,1,.75.72,2.56,2.56,0,0,1,.39,1.39,2.44,2.44,0,0,1-.77,1.85,3.19,3.19,0,0,1-1.39.7l2.39,4.07a.55.55,0,0,1,.09.29.49.49,0,0,1-.29.47.69.69,0,0,1-.35.08.61.61,0,0,1-.57-.35l-2.43-4.42Zm0-1H35.3a2.42,2.42,0,0,0,1.26-.3,1.51,1.51,0,0,0,.78-1.41c0-1-.69-1.56-2.06-1.56H34.17c-.21,0-.32.11-.32.34Z"/><path class="cls-2" d="M42,103.15v3.74a.47.47,0,0,1-.12.31.63.63,0,0,1-.49.2.64.64,0,0,1-.52-.23.43.43,0,0,1-.09-.28V98.6c0-.84.46-1.26,1.36-1.26h1.41a3.66,3.66,0,0,1,2.25.66,2.56,2.56,0,0,1,1.05,2.2,2.68,2.68,0,0,1-.93,2.22,3.75,3.75,0,0,1-2.42.73Zm0-1h1.42a2.34,2.34,0,0,0,1.61-.51,1.81,1.81,0,0,0,.55-1.4,1.68,1.68,0,0,0-.65-1.44,2.28,2.28,0,0,0-1.44-.41H42.36c-.24,0-.37.11-.37.32Z"/><path class="cls-2" d="M49.9,102.6v4.28a.46.46,0,0,1-.17.36.65.65,0,0,1-.43.13c-.39,0-.59-.16-.59-.49V98.56c0-.81.42-1.22,1.28-1.22h1.53a4,4,0,0,1,2,.46,2,2,0,0,1,.75.72,2.56,2.56,0,0,1,.39,1.39,2.44,2.44,0,0,1-.77,1.85,3.19,3.19,0,0,1-1.39.7l2.39,4.07a.55.55,0,0,1,.09.29.49.49,0,0,1-.3.47.66.66,0,0,1-.34.08.63.63,0,0,1-.58-.35l-2.42-4.42Zm0-1h1.44a2.46,2.46,0,0,0,1.27-.3,1.51,1.51,0,0,0,.78-1.41c0-1-.69-1.56-2.06-1.56H50.22c-.21,0-.32.11-.32.34Z"/><path class="cls-2" d="M59.65,97.11a2.57,2.57,0,0,1,2.27,1.26,7.22,7.22,0,0,1,.91,3.94,8,8,0,0,1-.67,3.53,2.69,2.69,0,0,1-2.52,1.68,2.59,2.59,0,0,1-2.25-1.23,7.21,7.21,0,0,1-.92-4,7,7,0,0,1,.94-4A2.56,2.56,0,0,1,59.65,97.11Zm0,1a1.46,1.46,0,0,0-1.31.87,7.07,7.07,0,0,0-.61,3.33,7.69,7.69,0,0,0,.46,3q.49,1.2,1.47,1.2a1.48,1.48,0,0,0,1.33-.91,7,7,0,0,0,.6-3.26,7.28,7.28,0,0,0-.56-3.2A1.52,1.52,0,0,0,59.64,98.13Z"/><path class="cls-2" d="M67.68,97.11a2.55,2.55,0,0,1,2.26,1.26,7.13,7.13,0,0,1,.91,3.94,8.05,8.05,0,0,1-.66,3.53,2.69,2.69,0,0,1-2.53,1.68,2.57,2.57,0,0,1-2.24-1.23,7.12,7.12,0,0,1-.93-4,7,7,0,0,1,.94-4A2.58,2.58,0,0,1,67.68,97.11Zm0,1a1.47,1.47,0,0,0-1.31.87,7.07,7.07,0,0,0-.61,3.33,7.69,7.69,0,0,0,.46,3q.49,1.2,1.47,1.2a1.47,1.47,0,0,0,1.33-.91,7,7,0,0,0,.6-3.26,7.28,7.28,0,0,0-.56-3.2A1.52,1.52,0,0,0,67.66,98.13Z"/><path class="cls-2" d="M74.06,102.6v4.28a.47.47,0,0,1-.14.33.67.67,0,0,1-.47.16.63.63,0,0,1-.52-.21.43.43,0,0,1-.09-.28V98.55c0-.81.44-1.21,1.31-1.21H78a.52.52,0,0,1,.36.13.56.56,0,0,1,0,.83.54.54,0,0,1-.31.09H74.41c-.23,0-.35.1-.35.29v2.9h3.4a.45.45,0,0,1,.28.1.51.51,0,0,1,.21.42.48.48,0,0,1-.25.44.53.53,0,0,1-.24.06Z"/><path class="cls-2" d="M83.1,98.3h-1c-.33,0-.5-.16-.5-.47a.44.44,0,0,1,.5-.49h3.27a.56.56,0,0,1,.3.08.48.48,0,0,1,.2.4c0,.32-.17.48-.5.48h-1v8h1a.56.56,0,0,1,.3.08.48.48,0,0,1,.2.4.44.44,0,0,1-.5.49H82.08a.49.49,0,1,1,0-1h1Z"/><path class="cls-2" d="M89.84,99.17l.08,7.75a.44.44,0,0,1-.06.23.54.54,0,0,1-.51.25.56.56,0,0,1-.48-.23.41.41,0,0,1-.08-.25V98q0-.78.84-.78a.74.74,0,0,1,.72.47l3.29,7.15-.08-7.15a.38.38,0,0,1,0-.16.53.53,0,0,1,.54-.31c.37,0,.56.16.56.47v9.12c0,.39-.21.59-.63.59a.69.69,0,0,1-.65-.47Z"/><path class="cls-2" d="M102,105.81a2.77,2.77,0,0,1-.83,1.16,2.46,2.46,0,0,1-1.56.55,2.5,2.5,0,0,1-2.3-1.5,8,8,0,0,1-.73-3.71,7.69,7.69,0,0,1,.71-3.6,2.79,2.79,0,0,1,2.58-1.6,3.19,3.19,0,0,1,1.3.27A2.39,2.39,0,0,1,102.59,99a1.35,1.35,0,0,1,0,.29.44.44,0,0,1-.16.36.73.73,0,0,1-.45.14c-.26,0-.45-.16-.56-.49a1.56,1.56,0,0,0-1.62-1.19c-1.36,0-2,1.39-2,4.16a7.61,7.61,0,0,0,.49,3,1.58,1.58,0,0,0,1.44,1.13,1.76,1.76,0,0,0,1.49-.88,4.38,4.38,0,0,0,.62-2H100.6a.44.44,0,0,1-.3-.1.48.48,0,0,1-.18-.4.46.46,0,0,1,.21-.42.45.45,0,0,1,.27-.07H102c.62,0,.94.29.94.87V107c0,.25-.16.37-.48.37s-.48-.12-.48-.37Z"/><path class="cls-2" d="M113.91,99.17l.08,7.75a.44.44,0,0,1-.06.23.54.54,0,0,1-.51.25.56.56,0,0,1-.48-.23.41.41,0,0,1-.08-.25V98q0-.78.84-.78a.74.74,0,0,1,.72.47l3.29,7.15-.08-7.15a.38.38,0,0,1,0-.16.53.53,0,0,1,.54-.31c.37,0,.56.16.56.47v9.12c0,.39-.21.59-.63.59a.69.69,0,0,1-.65-.47Z"/><path class="cls-2" d="M122.2,102.59v3.34c0,.21.11.32.34.32h3.87a.52.52,0,0,1,.3.08.5.5,0,0,1,.21.43.49.49,0,0,1-.25.46.53.53,0,0,1-.26.07h-4.09c-.89,0-1.34-.42-1.34-1.25V98.57c0-.82.45-1.23,1.34-1.23h3.81a.61.61,0,0,1,.3.08.52.52,0,0,1,.21.44.5.5,0,0,1-.24.46.6.6,0,0,1-.27.06h-3.59c-.23,0-.34.1-.34.31v2.91h3.41a.49.49,0,0,1,.34.12.5.5,0,0,1,.15.38.46.46,0,0,1-.23.43.55.55,0,0,1-.26.06Z"/><path class="cls-2" d="M130.25,103.15v3.74a.47.47,0,0,1-.12.31.63.63,0,0,1-.49.2.64.64,0,0,1-.52-.23.43.43,0,0,1-.09-.28V98.6c0-.84.45-1.26,1.36-1.26h1.41a3.66,3.66,0,0,1,2.25.66,2.56,2.56,0,0,1,1,2.2,2.68,2.68,0,0,1-.93,2.22,3.75,3.75,0,0,1-2.42.73Zm0-1h1.42a2.29,2.29,0,0,0,1.6-.51,1.78,1.78,0,0,0,.56-1.4,1.68,1.68,0,0,0-.65-1.44,2.3,2.3,0,0,0-1.44-.41h-1.12c-.24,0-.37.11-.37.32Z"/><path class="cls-2" d="M138.44,104.11l-.81,2.83a.56.56,0,0,1-.59.44.67.67,0,0,1-.24,0,.49.49,0,0,1-.39-.51.64.64,0,0,1,0-.2L139,97.92a.87.87,0,0,1,1.7,0l2.6,8.71a1,1,0,0,1,0,.2.49.49,0,0,1-.37.5.65.65,0,0,1-.27,0,.54.54,0,0,1-.57-.44l-.83-2.83Zm1.44-5.7-1.19,4.68h2.38Z"/><path class="cls-2" d="M146.33,97.75v8.17c0,.21.11.31.33.31h3.91a.48.48,0,0,1,.35.13.54.54,0,0,1,.17.4.51.51,0,0,1-.25.46.6.6,0,0,1-.27.07h-4.19c-.87,0-1.3-.4-1.3-1.2V97.75a.46.46,0,0,1,.2-.38.75.75,0,0,1,.42-.13.72.72,0,0,1,.44.14A.43.43,0,0,1,146.33,97.75Z"/></g></g></g></svg>